<?xml version="1.0" standalone="no"?>
<!DOCTYPE svg PUBLIC "-//W3C//DTD SVG 20010904//EN"
 "http://www.w3.org/TR/2001/REC-SVG-20010904/DTD/svg10.dtd">
<svg version="1.0" xmlns="http://www.w3.org/2000/svg"
 width="512.000000pt" height="512.000000pt" viewBox="0 0 512.000000 512.000000"
 preserveAspectRatio="xMidYMid meet">

<g transform="translate(0.000000,512.000000) scale(0.100000,-0.100000)"
fill="#000000" stroke="none">
<path d="M645 4309 c-27 -6 -92 -30 -144 -55 -129 -63 -212 -146 -275 -275
-26 -55 -49 -121 -56 -159 -7 -45 -10 -442 -8 -1300 l3 -1235 22 -58 c80 -208
208 -333 413 -403 53 -18 124 -19 1955 -19 2071 0 1935 -4 2060 57 157 77 259
196 321 378 18 53 19 106 19 1320 0 1415 6 1291 -71 1440 -68 130 -190 235
-337 289 l-72 26 -1890 1 c-1146 1 -1910 -2 -1940 -7z m3826 -335 c57 -27 115
-85 143 -144 l21 -45 0 -1225 0 -1225 -21 -45 c-27 -57 -87 -117 -144 -144
l-45 -21 -1865 0 -1865 0 -45 21 c-57 27 -117 87 -144 144 -21 45 -21 47 -24
1249 -2 1042 0 1212 13 1256 25 87 92 156 179 187 48 16 155 17 1901 15 l1850
-2 46 -21z"/>
<path d="M895 3506 c-67 -29 -105 -106 -91 -181 9 -47 59 -102 104 -115 26 -8
545 -10 1674 -8 1635 3 1637 3 1664 24 53 39 69 71 69 134 0 63 -16 95 -69
134 -27 21 -28 21 -1674 23 -1354 2 -1652 0 -1677 -11z"/>
<path d="M895 1746 c-67 -29 -105 -106 -91 -181 9 -47 59 -102 104 -115 24 -7
160 -10 394 -8 342 3 358 4 384 24 53 39 69 71 69 134 0 63 -16 95 -69 134
-26 20 -41 21 -394 23 -290 2 -373 0 -397 -11z"/>
</g>
</svg>
